<mxfile host="app.diagrams.net" agent="Mozilla/5.0 (Windows NT 10.0; Win64; x64) AppleWebKit/537.36 (KHTML, like Gecko) Chrome/127.0.0.0 Safari/537.36" version="24.7.6">
  <diagram name="Сторінка-1" id="jzqquEuIG8W-vMYtFiRl">
    <mxGraphModel dx="880" dy="468" grid="1" gridSize="10" guides="1" tooltips="1" connect="1" arrows="1" fold="1" page="1" pageScale="1" pageWidth="827" pageHeight="1169" math="0" shadow="0">
      <root>
        <mxCell id="0" />
        <mxCell id="1" parent="0" />
        <mxCell id="91tvy0pTeVrG3RtkHO6O-4" style="edgeStyle=none;rounded=0;orthogonalLoop=1;jettySize=auto;html=1;exitX=1;exitY=0.5;exitDx=0;exitDy=0;entryX=0;entryY=0.5;entryDx=0;entryDy=0;dashed=1;" edge="1" parent="1" source="91tvy0pTeVrG3RtkHO6O-1" target="91tvy0pTeVrG3RtkHO6O-2">
          <mxGeometry relative="1" as="geometry" />
        </mxCell>
        <mxCell id="91tvy0pTeVrG3RtkHO6O-1" value="&lt;p style=&quot;margin:0px;margin-top:4px;text-align:center;&quot;&gt;&lt;b&gt;&lt;i&gt;Creator&lt;/i&gt;&lt;/b&gt;&lt;/p&gt;&lt;hr size=&quot;1&quot; style=&quot;border-style:solid;&quot;&gt;&lt;p style=&quot;margin:0px;margin-left:4px;&quot;&gt;+&amp;nbsp;&lt;span style=&quot;font-family: &amp;quot;JetBrains Mono&amp;quot;, monospace; background-color: rgb(255, 255, 255); color: rgb(8, 8, 8);&quot;&gt;factoryMethod()&lt;/span&gt;&lt;/p&gt;&lt;p style=&quot;margin:0px;margin-left:4px;&quot;&gt;&lt;span style=&quot;background-color: initial;&quot;&gt;+&amp;nbsp;&lt;/span&gt;&lt;span style=&quot;font-family: &amp;quot;JetBrains Mono&amp;quot;, monospace; background-color: rgb(255, 255, 255);&quot;&gt;product&lt;/span&gt;&lt;span style=&quot;font-family: &amp;quot;JetBrains Mono&amp;quot;, monospace; background-color: rgb(255, 255, 255); color: rgb(8, 8, 8);&quot;&gt;.use()&lt;/span&gt;&lt;/p&gt;" style="verticalAlign=top;align=left;overflow=fill;html=1;whiteSpace=wrap;" vertex="1" parent="1">
          <mxGeometry x="120" y="80" width="160" height="70" as="geometry" />
        </mxCell>
        <mxCell id="91tvy0pTeVrG3RtkHO6O-2" value="«interface»&lt;br&gt;&lt;b&gt;Product&lt;/b&gt;&lt;div&gt;+&lt;span style=&quot;font-family: &amp;quot;JetBrains Mono&amp;quot;, monospace; background-color: rgb(255, 255, 255); color: rgb(0, 98, 122);&quot;&gt;use&lt;/span&gt;&lt;span style=&quot;font-family: &amp;quot;JetBrains Mono&amp;quot;, monospace; background-color: rgb(255, 255, 255); color: rgb(8, 8, 8);&quot;&gt;()&lt;/span&gt;&lt;/div&gt;" style="html=1;whiteSpace=wrap;" vertex="1" parent="1">
          <mxGeometry x="450" y="90" width="110" height="50" as="geometry" />
        </mxCell>
        <mxCell id="91tvy0pTeVrG3RtkHO6O-5" value="&lt;p style=&quot;margin:0px;margin-top:4px;text-align:center;&quot;&gt;&lt;br&gt;&lt;/p&gt;&lt;p style=&quot;margin:0px;margin-top:4px;text-align:center;&quot;&gt;&lt;b&gt;ConcreteProductA&lt;/b&gt;&lt;/p&gt;&lt;p style=&quot;margin:0px;margin-top:4px;text-align:center;&quot;&gt;+use()&lt;/p&gt;" style="verticalAlign=top;align=left;overflow=fill;html=1;whiteSpace=wrap;" vertex="1" parent="1">
          <mxGeometry x="420" y="200" width="140" height="60" as="geometry" />
        </mxCell>
        <mxCell id="91tvy0pTeVrG3RtkHO6O-6" value="&lt;p style=&quot;margin:0px;margin-top:4px;text-align:center;&quot;&gt;&lt;br&gt;&lt;/p&gt;&lt;p style=&quot;margin:0px;margin-top:4px;text-align:center;&quot;&gt;&lt;b&gt;ConcreteProductB&lt;/b&gt;&lt;br&gt;&lt;/p&gt;&lt;p style=&quot;margin:0px;margin-top:4px;text-align:center;&quot;&gt;+use()&lt;b&gt;&lt;br&gt;&lt;/b&gt;&lt;/p&gt;" style="verticalAlign=top;align=left;overflow=fill;html=1;whiteSpace=wrap;" vertex="1" parent="1">
          <mxGeometry x="660" y="200" width="140" height="60" as="geometry" />
        </mxCell>
        <mxCell id="91tvy0pTeVrG3RtkHO6O-8" style="edgeStyle=orthogonalEdgeStyle;rounded=0;orthogonalLoop=1;jettySize=auto;html=1;exitX=0.5;exitY=0;exitDx=0;exitDy=0;entryX=0.627;entryY=1.06;entryDx=0;entryDy=0;entryPerimeter=0;dashed=1;endArrow=none;endFill=0;" edge="1" parent="1" source="91tvy0pTeVrG3RtkHO6O-6" target="91tvy0pTeVrG3RtkHO6O-2">
          <mxGeometry relative="1" as="geometry" />
        </mxCell>
        <mxCell id="91tvy0pTeVrG3RtkHO6O-11" style="edgeStyle=elbowEdgeStyle;rounded=0;orthogonalLoop=1;jettySize=auto;elbow=vertical;html=1;exitX=0.5;exitY=0;exitDx=0;exitDy=0;entryX=0.618;entryY=0.98;entryDx=0;entryDy=0;entryPerimeter=0;dashed=1;endArrow=block;endFill=0;" edge="1" parent="1" source="91tvy0pTeVrG3RtkHO6O-5" target="91tvy0pTeVrG3RtkHO6O-2">
          <mxGeometry relative="1" as="geometry" />
        </mxCell>
        <mxCell id="91tvy0pTeVrG3RtkHO6O-14" value="&lt;p style=&quot;margin:0px;margin-top:4px;text-align:center;&quot;&gt;&lt;b&gt;ConcreteCreatorA&lt;/b&gt;&lt;/p&gt;&lt;hr size=&quot;1&quot; style=&quot;border-style:solid;&quot;&gt;&lt;p style=&quot;margin:0px;margin-left:4px;&quot;&gt;+ factoryMethod():&amp;nbsp;&lt;span style=&quot;background-color: initial;&quot;&gt;Product&lt;/span&gt;&lt;/p&gt;&lt;p style=&quot;margin:0px;margin-left:4px;&quot;&gt;&lt;br&gt;&lt;/p&gt;" style="verticalAlign=top;align=left;overflow=fill;html=1;whiteSpace=wrap;" vertex="1" parent="1">
          <mxGeometry x="10" y="200" width="160" height="90" as="geometry" />
        </mxCell>
        <mxCell id="91tvy0pTeVrG3RtkHO6O-15" value="&lt;p style=&quot;margin:0px;margin-top:4px;text-align:center;&quot;&gt;&lt;b&gt;ConcreteCreatorB&lt;/b&gt;&lt;br&gt;&lt;/p&gt;&lt;hr size=&quot;1&quot; style=&quot;border-style:solid;&quot;&gt;&lt;p style=&quot;margin:0px;margin-left:4px;&quot;&gt;+ factoryMethod():&amp;nbsp;&lt;span style=&quot;background-color: initial;&quot;&gt;Product&lt;/span&gt;&lt;br&gt;&lt;/p&gt;&lt;p style=&quot;margin:0px;margin-left:4px;&quot;&gt;&lt;br&gt;&lt;/p&gt;" style="verticalAlign=top;align=left;overflow=fill;html=1;whiteSpace=wrap;" vertex="1" parent="1">
          <mxGeometry x="190" y="200" width="160" height="90" as="geometry" />
        </mxCell>
        <mxCell id="91tvy0pTeVrG3RtkHO6O-18" style="edgeStyle=elbowEdgeStyle;rounded=0;orthogonalLoop=1;jettySize=auto;elbow=vertical;html=1;exitX=0.5;exitY=0;exitDx=0;exitDy=0;entryX=0.5;entryY=1;entryDx=0;entryDy=0;dashed=1;endArrow=none;endFill=0;" edge="1" parent="1" source="91tvy0pTeVrG3RtkHO6O-16" target="91tvy0pTeVrG3RtkHO6O-14">
          <mxGeometry relative="1" as="geometry" />
        </mxCell>
        <mxCell id="91tvy0pTeVrG3RtkHO6O-16" value="&lt;b&gt;return new&lt;/b&gt; ConcreteProductA" style="html=1;whiteSpace=wrap;" vertex="1" parent="1">
          <mxGeometry x="35" y="320" width="110" height="50" as="geometry" />
        </mxCell>
        <mxCell id="91tvy0pTeVrG3RtkHO6O-17" value="&lt;b&gt;return new&lt;/b&gt;&amp;nbsp;&lt;div&gt;ConcreteProductB&lt;/div&gt;" style="html=1;whiteSpace=wrap;" vertex="1" parent="1">
          <mxGeometry x="220" y="320" width="120" height="50" as="geometry" />
        </mxCell>
        <mxCell id="91tvy0pTeVrG3RtkHO6O-23" style="edgeStyle=none;rounded=0;orthogonalLoop=1;jettySize=auto;html=1;exitX=0.5;exitY=0;exitDx=0;exitDy=0;entryX=0.569;entryY=0.978;entryDx=0;entryDy=0;entryPerimeter=0;elbow=vertical;dashed=1;endArrow=none;endFill=0;" edge="1" parent="1" source="91tvy0pTeVrG3RtkHO6O-17" target="91tvy0pTeVrG3RtkHO6O-15">
          <mxGeometry relative="1" as="geometry" />
        </mxCell>
      </root>
    </mxGraphModel>
  </diagram>
</mxfile>
